<svg id="svg" version="1.1" xmlns="http://www.w3.org/2000/svg" xmlns:xlink="http://www.w3.org/1999/xlink" width="400" height="398.39679358717433" viewBox="0, 0, 400,398.39679358717433"><g id="svgg"><path id="path0" d="M0.000 199.203 L 0.000 398.406 200.000 398.406 L 400.000 398.406 400.000 199.203 L 400.000 0.000 200.000 0.000 L 0.000 0.000 0.000 199.203 M204.698 87.450 C 204.762 91.833,204.708 96.007,204.578 96.726 L 204.342 98.033 199.681 97.921 L 195.020 97.809 194.913 88.533 L 194.806 79.258 199.694 79.370 L 204.582 79.482 204.698 87.450 M169.923 93.025 C 173.537 96.639,176.494 99.869,176.494 100.203 C 176.494 100.815,170.801 106.773,170.216 106.773 C 169.862 106.773,156.175 93.002,156.175 92.646 C 156.175 92.080,162.028 86.512,162.652 86.485 C 163.051 86.467,166.181 89.282,169.923 93.025 M240.046 89.436 C 241.686 91.076,243.028 92.553,243.028 92.719 C 243.028 93.118,229.381 106.773,228.982 106.773 C 228.401 106.773,222.709 100.811,222.709 100.203 C 222.709 99.366,235.489 86.526,236.361 86.486 C 236.748 86.469,238.406 87.796,240.046 89.436 M206.208 109.177 C 212.559 110.286,213.705 110.630,219.024 113.023 C 223.021 114.821,231.076 121.825,231.076 123.503 C 231.076 123.724,231.210 123.906,231.375 123.907 C 231.539 123.909,231.871 124.313,232.113 124.804 C 232.355 125.295,233.075 126.683,233.713 127.888 C 235.030 130.374,236.653 134.955,236.653 136.184 C 236.653 136.635,236.833 137.116,237.052 137.251 C 237.271 137.386,237.450 138.057,237.450 138.740 C 237.450 139.424,237.618 140.534,237.822 141.207 C 239.002 145.088,239.033 155.648,237.878 159.960 C 237.042 163.079,236.487 164.773,236.186 165.120 C 236.005 165.328,235.851 165.776,235.844 166.116 C 235.828 166.885,233.000 172.578,232.271 173.307 C 232.161 173.416,231.700 174.223,231.245 175.100 C 230.176 177.160,229.334 178.634,229.084 178.884 C 228.686 179.282,224.919 186.629,224.283 188.247 C 223.338 190.651,223.108 192.133,223.108 195.797 C 223.108 201.337,225.519 200.797,200.797 200.797 C 176.210 200.797,178.488 201.263,178.480 196.235 C 178.471 190.236,175.836 184.776,168.730 176.028 C 168.433 175.661,167.972 174.956,167.706 174.459 C 167.440 173.962,166.889 173.197,166.480 172.759 C 166.071 172.320,165.737 171.741,165.737 171.472 C 165.737 171.203,165.602 170.923,165.437 170.850 C 164.899 170.612,162.094 164.557,161.408 162.151 C 161.189 161.384,160.806 160.040,160.557 159.163 C 158.909 153.374,160.952 136.650,164.171 129.586 C 164.594 128.657,164.940 127.799,164.940 127.678 C 164.940 124.774,175.133 114.875,180.677 112.394 C 181.335 112.100,182.142 111.727,182.472 111.565 C 186.749 109.466,200.147 108.118,206.208 109.177 M191.036 119.221 C 179.269 122.140,173.505 128.475,170.501 141.791 C 169.803 144.884,169.773 156.790,170.459 158.566 C 170.755 159.333,171.135 160.319,171.304 160.757 C 171.988 162.526,173.524 165.546,173.805 165.671 C 173.969 165.744,174.104 166.024,174.104 166.293 C 174.104 166.562,174.438 167.141,174.847 167.579 C 175.255 168.018,175.807 168.783,176.073 169.280 C 176.338 169.776,176.799 170.482,177.097 170.848 C 178.394 172.445,180.478 175.324,180.478 175.518 C 180.478 175.635,180.798 176.074,181.188 176.493 C 182.363 177.754,185.576 183.383,186.502 185.801 C 187.779 189.139,187.831 188.756,188.048 174.370 L 188.247 161.155 192.470 161.043 C 198.077 160.894,197.580 159.442,197.704 176.329 L 197.809 190.637 199.602 190.637 L 201.394 190.637 201.499 176.329 C 201.622 159.527,201.147 160.956,206.608 160.956 C 211.980 160.956,211.554 159.619,211.554 176.480 C 211.554 188.594,211.634 190.494,212.156 190.695 C 212.962 191.004,213.944 190.140,213.944 189.123 C 213.944 188.364,214.427 186.583,215.152 184.661 C 216.169 181.971,219.508 175.593,220.020 175.365 C 220.184 175.292,220.319 175.078,220.319 174.889 C 220.319 174.699,220.987 173.415,221.804 172.033 C 224.288 167.833,224.631 167.213,225.723 164.940 C 228.332 159.514,228.799 157.509,228.834 151.594 C 228.881 143.394,227.882 138.417,224.964 132.312 C 222.295 126.727,216.955 122.089,211.103 120.272 C 206.434 118.822,195.047 118.226,191.036 119.221 M220.527 207.669 C 220.650 208.162,220.698 210.359,220.634 212.550 L 220.518 216.534 200.797 216.534 L 181.076 216.534 180.959 212.550 C 180.895 210.359,180.943 208.162,181.066 207.669 L 181.290 206.773 200.797 206.773 L 220.304 206.773 220.527 207.669 M220.284 220.874 C 220.587 221.240,220.706 222.907,220.631 225.755 L 220.518 230.080 200.797 230.080 L 181.076 230.080 180.962 225.755 C 180.804 219.711,178.587 220.319,200.797 220.319 C 216.583 220.319,219.901 220.413,220.284 220.874 M213.459 239.143 L 213.571 243.825 200.809 243.825 L 188.048 243.825 188.048 239.309 C 188.048 236.826,188.170 234.672,188.319 234.523 C 188.468 234.374,194.160 234.299,200.968 234.357 L 213.347 234.462 213.459 239.143 M91.599 294.625 C 95.029 295.395,97.788 300.339,96.713 303.785 C 95.421 307.922,93.464 309.347,88.477 309.782 L 85.288 310.061 85.174 313.696 L 85.060 317.331 82.171 317.448 L 79.283 317.565 79.283 305.773 L 79.283 293.982 84.761 294.151 C 87.774 294.244,90.851 294.457,91.599 294.625 M114.360 294.528 C 122.851 297.487,124.881 309.738,117.763 315.067 C 109.387 321.339,97.610 315.748,97.610 305.501 C 97.610 304.065,99.190 299.602,99.699 299.602 C 99.864 299.602,100.000 299.369,100.000 299.085 C 100.000 298.382,102.712 295.897,104.183 295.252 C 104.841 294.964,105.647 294.580,105.976 294.400 C 106.904 293.889,112.785 293.979,114.360 294.528 M130.478 305.777 L 130.478 317.331 127.590 317.448 L 124.701 317.565 124.701 306.060 C 124.701 292.994,124.446 293.955,127.872 294.107 L 130.478 294.223 130.478 305.777 M138.654 294.535 C 138.988 294.802,141.373 297.664,143.955 300.896 C 146.537 304.128,148.814 306.773,149.016 306.773 C 149.219 306.773,149.431 303.971,149.492 300.498 L 149.602 294.223 151.726 294.102 C 155.113 293.908,154.980 293.440,154.980 305.594 C 154.980 318.121,155.101 317.530,152.529 317.530 C 150.535 317.530,149.988 317.198,148.207 314.909 C 147.878 314.486,146.987 313.335,146.225 312.349 C 145.464 311.364,144.745 310.468,144.627 310.359 C 144.509 310.249,143.442 308.949,142.256 307.470 C 139.395 303.902,139.442 303.840,139.442 311.155 L 139.442 317.530 136.899 317.530 C 134.598 317.530,134.333 317.444,134.116 316.633 C 133.691 315.050,133.835 295.621,134.277 294.795 C 134.758 293.895,137.641 293.724,138.654 294.535 M174.701 296.614 L 174.701 299.004 171.614 299.120 L 168.526 299.237 168.526 308.401 L 168.526 317.565 165.637 317.448 L 162.749 317.331 162.642 308.284 L 162.535 299.236 159.455 299.120 L 156.375 299.004 156.251 297.063 C 156.044 293.811,155.454 293.996,165.628 294.116 L 174.701 294.223 174.701 296.614 M198.014 294.519 C 198.887 294.792,199.602 295.150,199.602 295.316 C 199.602 295.482,199.848 295.618,200.148 295.618 C 203.501 295.618,206.761 304.866,205.165 309.848 C 202.581 317.914,191.149 320.429,184.953 314.295 C 175.796 305.228,185.457 290.600,198.014 294.519 M223.036 295.779 C 223.314 299.178,223.277 299.203,218.120 299.203 L 213.546 299.203 213.546 301.394 L 213.546 303.586 216.856 303.586 C 221.077 303.586,221.607 303.933,221.440 306.587 L 221.315 308.566 217.430 308.680 L 213.546 308.794 213.546 313.162 L 213.546 317.530 210.558 317.530 L 207.570 317.530 207.570 306.042 C 207.570 299.724,207.693 294.432,207.844 294.281 C 207.995 294.130,211.446 294.056,215.513 294.115 L 222.908 294.223 223.036 295.779 M243.395 294.920 C 245.662 295.925,245.918 296.667,244.721 298.770 C 243.997 300.042,242.436 300.444,241.572 299.580 C 240.411 298.419,235.857 299.246,235.857 300.619 C 235.857 301.256,237.933 302.789,238.795 302.789 C 242.100 302.789,246.215 306.736,246.215 309.906 C 246.215 315.782,239.179 319.547,233.017 316.967 C 230.684 315.991,228.576 313.147,230.184 313.147 C 230.352 313.147,230.665 312.744,230.882 312.251 C 231.412 311.042,232.778 310.924,234.693 311.922 C 237.584 313.429,240.239 312.941,240.239 310.904 C 240.239 309.394,238.519 307.972,236.688 307.970 C 235.360 307.968,232.497 306.217,231.475 304.782 C 230.543 303.473,230.219 298.360,231.051 298.083 C 231.284 298.005,231.474 297.715,231.474 297.439 C 231.474 294.673,239.168 293.047,243.395 294.920 M261.724 295.717 C 263.617 300.150,269.721 316.303,269.721 316.879 C 269.721 317.413,269.267 317.530,267.193 317.530 C 264.323 317.530,263.766 317.139,262.941 314.542 C 262.271 312.433,262.117 312.364,258.096 312.357 C 254.486 312.350,253.388 312.796,253.385 314.271 C 253.380 316.389,251.918 317.530,249.209 317.530 C 245.885 317.530,245.907 317.769,248.609 310.956 C 248.782 310.518,249.301 309.310,249.761 308.271 C 250.221 307.233,250.598 306.239,250.598 306.063 C 250.598 305.790,252.996 299.658,254.800 295.319 C 255.335 294.030,255.351 294.024,258.169 294.024 L 261.001 294.024 261.724 295.717 M276.973 294.124 C 277.018 294.178,277.152 298.347,277.272 303.386 L 277.490 312.550 281.474 312.749 L 285.458 312.948 285.578 315.239 L 285.697 317.530 278.506 317.530 L 271.315 317.530 271.315 306.042 C 271.315 299.724,271.434 294.436,271.580 294.290 C 271.823 294.046,276.787 293.894,276.973 294.124 M302.775 294.795 C 304.436 297.898,302.982 299.203,297.864 299.203 L 293.625 299.203 293.625 301.379 L 293.625 303.555 297.112 303.670 L 300.598 303.785 300.598 305.777 L 300.598 307.769 297.112 307.884 L 293.625 307.999 293.625 310.374 L 293.625 312.749 298.017 312.749 C 303.002 312.749,303.577 313.135,303.020 316.105 L 302.753 317.530 295.201 317.530 L 287.649 317.530 287.649 305.777 L 287.649 294.024 295.006 294.024 C 301.871 294.024,302.390 294.075,302.775 294.795 M316.893 294.631 C 319.619 295.770,320.027 296.495,319.003 298.382 C 318.147 299.957,316.386 300.651,315.770 299.655 C 315.487 299.198,312.727 298.843,311.408 299.095 C 309.124 299.532,310.557 302.789,313.033 302.789 C 313.321 302.789,313.868 302.947,314.248 303.141 C 314.629 303.334,315.478 303.732,316.135 304.025 C 321.237 306.297,321.344 313.870,316.315 316.696 C 311.401 319.458,302.219 316.391,304.605 312.785 C 305.831 310.933,306.503 310.798,308.765 311.952 C 311.716 313.458,314.532 312.682,314.265 310.438 C 314.132 309.326,312.351 308.046,310.869 307.997 C 309.066 307.938,305.892 305.748,304.939 303.905 C 303.236 300.611,304.774 297.035,308.964 294.544 C 310.126 293.854,315.165 293.909,316.893 294.631 M85.259 301.937 L 85.259 305.179 87.279 305.179 C 92.133 305.179,92.198 299.503,87.351 298.938 L 85.259 298.694 85.259 301.937 M105.870 300.584 C 100.508 305.946,106.677 315.521,113.233 312.013 C 116.661 310.179,116.894 302.384,113.592 300.033 C 111.526 298.562,107.613 298.841,105.870 300.584 M189.928 300.055 C 186.825 302.370,186.895 309.298,190.045 311.626 C 195.413 315.592,201.653 309.128,198.959 302.393 C 197.697 299.240,192.741 297.956,189.928 300.055 M257.769 301.336 C 257.769 301.413,257.321 302.712,256.773 304.223 C 255.397 308.016,255.379 307.968,258.167 307.968 C 259.482 307.968,260.558 307.834,260.558 307.671 C 260.558 306.831,258.449 301.195,258.135 301.195 C 257.933 301.195,257.769 301.259,257.769 301.336 " stroke="none" fill="#3c93e3" fill-rule="evenodd"></path><path id="path1" d="M195.311 88.546 L 195.418 97.410 199.602 97.410 L 203.785 97.410 203.892 88.546 L 203.999 79.681 199.602 79.681 L 195.204 79.681 195.311 88.546 M159.459 89.769 L 156.621 92.685 163.477 99.533 L 170.333 106.380 173.214 103.480 C 174.799 101.884,176.096 100.402,176.096 100.185 C 176.096 99.654,163.250 86.853,162.718 86.853 C 162.486 86.853,161.019 88.165,159.459 89.769 M229.582 93.416 C 226.021 96.994,223.108 100.086,223.108 100.287 C 223.108 100.488,224.420 101.929,226.024 103.490 L 228.940 106.327 235.788 99.471 L 242.635 92.615 239.735 89.734 C 238.139 88.149,236.659 86.865,236.445 86.881 C 236.231 86.896,233.142 89.837,229.582 93.416 M194.223 109.562 C 193.785 109.750,192.757 109.917,191.938 109.932 C 188.309 110.000,181.538 112.220,178.215 114.430 C 177.299 115.039,176.358 115.538,176.123 115.538 C 175.889 115.538,175.697 115.678,175.697 115.850 C 175.697 116.022,175.192 116.461,174.575 116.826 C 173.129 117.680,169.871 120.938,169.017 122.384 C 168.652 123.001,168.213 123.506,168.042 123.506 C 167.870 123.506,167.729 123.698,167.729 123.932 C 167.729 124.167,167.191 125.140,166.534 126.096 C 165.876 127.051,165.339 127.937,165.339 128.064 C 165.339 128.191,164.990 129.056,164.563 129.984 C 162.043 135.469,160.558 143.475,160.558 151.565 C 160.558 161.221,163.012 167.592,170.543 177.490 C 174.470 182.651,177.101 187.029,178.469 190.679 C 178.724 191.359,179.056 193.779,179.207 196.057 L 179.482 200.199 200.797 200.199 L 222.112 200.199 222.373 195.691 C 222.517 193.211,222.849 190.611,223.110 189.914 C 223.372 189.216,223.724 188.287,223.892 187.849 C 224.743 185.631,227.439 180.564,230.462 175.498 C 232.048 172.841,235.279 166.436,235.888 164.741 C 237.755 159.548,238.046 157.646,237.998 150.944 C 237.933 141.743,236.057 133.058,232.931 127.490 C 232.500 126.723,231.774 125.405,231.318 124.562 C 229.533 121.266,222.784 115.313,218.725 113.455 C 214.063 111.320,211.253 110.536,204.873 109.592 C 201.474 109.089,195.364 109.072,194.223 109.562 M204.398 118.496 C 215.770 119.909,223.326 125.393,226.669 134.661 C 226.946 135.428,227.314 136.414,227.489 136.853 C 227.802 137.642,228.261 139.833,229.066 144.389 C 230.809 154.256,229.216 160.607,221.915 172.908 C 217.331 180.630,215.372 184.840,214.357 189.146 C 213.961 190.825,213.673 191.288,212.903 191.481 C 210.788 192.012,210.775 191.929,210.662 176.350 L 210.558 161.952 206.375 161.952 L 202.191 161.952 201.992 176.693 L 201.793 191.434 199.602 191.434 L 197.410 191.434 197.211 176.693 L 197.012 161.952 192.829 161.952 L 188.645 161.952 188.541 176.280 C 188.435 190.706,188.241 192.683,187.238 189.554 C 185.399 183.817,180.978 176.295,174.996 168.725 C 174.683 168.329,173.422 166.233,172.116 163.937 C 169.059 158.562,168.313 149.696,170.174 140.837 C 173.701 124.047,185.754 116.179,204.398 118.496 M181.544 207.832 C 181.054 208.322,181.247 214.950,181.773 215.666 C 182.232 216.291,183.746 216.336,200.996 216.240 L 219.721 216.135 219.721 211.952 L 219.721 207.769 200.767 207.666 C 190.343 207.609,181.693 207.683,181.544 207.832 M181.773 221.377 C 181.249 221.591,181.040 228.009,181.517 229.250 C 181.733 229.813,183.809 229.880,200.853 229.880 L 219.947 229.880 219.834 225.598 L 219.721 221.315 200.996 221.245 C 190.697 221.206,182.047 221.266,181.773 221.377 M188.446 239.243 L 188.446 243.426 200.797 243.426 L 213.147 243.426 213.147 239.243 L 213.147 235.060 200.797 235.060 L 188.446 235.060 188.446 239.243 " stroke="none" fill="#e75d5e" fill-rule="evenodd"></path><path id="path2" d="M79.681 305.797 L 79.681 317.171 81.972 317.052 L 84.263 316.932 84.462 313.347 L 84.661 309.761 88.096 309.309 C 94.129 308.516,96.080 306.746,96.109 302.042 C 96.144 296.428,92.729 294.422,83.135 294.422 L 79.681 294.422 79.681 305.797 M106.574 294.888 C 103.440 295.944,102.357 296.762,100.071 299.801 C 98.358 302.079,98.091 308.258,99.589 310.956 C 105.597 321.777,121.299 318.033,121.311 305.777 C 121.319 297.773,114.020 292.379,106.574 294.888 M134.856 295.319 C 134.735 295.812,134.687 300.876,134.749 306.574 L 134.861 316.932 136.753 317.054 L 138.645 317.175 138.645 310.181 C 138.645 306.335,138.780 303.190,138.944 303.193 C 139.530 303.205,140.115 303.858,144.823 309.761 C 150.517 316.898,150.757 317.131,152.409 317.131 C 154.192 317.131,154.183 317.185,154.183 305.777 C 154.183 294.013,154.264 294.422,151.949 294.422 L 150.199 294.422 150.193 301.096 C 150.186 308.846,149.993 309.500,148.358 307.311 C 147.727 306.467,146.984 305.537,146.707 305.244 C 146.430 304.952,145.713 304.055,145.113 303.252 C 144.514 302.450,143.797 301.553,143.520 301.260 C 143.243 300.967,142.532 300.071,141.941 299.268 C 138.674 294.831,135.419 293.017,134.856 295.319 M157.059 294.893 C 155.168 296.784,156.706 298.406,160.391 298.406 C 163.496 298.406,163.055 296.998,163.320 307.769 L 163.546 316.932 165.829 317.052 L 168.113 317.171 168.220 307.888 L 168.327 298.606 171.315 298.406 L 174.303 298.207 174.303 296.414 L 174.303 294.622 165.924 294.514 C 159.742 294.435,157.418 294.534,157.059 294.893 M189.044 295.251 C 177.342 299.676,180.988 316.927,193.625 316.931 C 204.097 316.934,209.066 305.646,202.008 297.888 C 200.731 296.484,200.129 296.115,197.093 294.877 C 195.438 294.202,191.312 294.394,189.044 295.251 M208.547 294.926 C 208.440 295.203,208.401 300.268,208.459 306.181 L 208.566 316.932 210.857 317.052 L 213.147 317.171 213.147 312.769 L 213.147 308.367 216.890 308.367 C 220.948 308.367,221.116 308.272,221.116 305.986 C 221.116 304.554,220.621 304.382,216.484 304.382 L 213.113 304.382 213.230 301.494 L 213.347 298.606 217.131 298.506 C 222.411 298.368,222.709 298.271,222.709 296.686 C 222.709 295.967,222.494 295.163,222.231 294.900 C 221.534 294.203,208.815 294.227,208.547 294.926 M235.635 294.968 C 229.293 297.315,229.439 305.184,235.861 307.122 C 240.310 308.465,241.321 309.348,240.852 311.483 C 240.400 313.543,237.348 314.201,234.970 312.750 C 233.233 311.691,232.196 311.746,231.148 312.951 C 229.943 314.336,230.022 314.556,232.171 315.820 C 236.251 318.218,242.139 317.248,244.368 313.810 C 247.108 309.585,245.065 305.391,239.390 303.591 C 235.377 302.318,234.282 300.322,236.753 298.783 C 238.157 297.909,239.483 297.971,241.560 299.007 C 243.357 299.904,245.020 298.760,245.020 296.628 C 245.020 296.342,244.706 296.000,244.323 295.868 C 239.770 294.292,237.967 294.105,235.635 294.968 M255.705 295.120 C 255.378 295.503,254.884 296.444,254.607 297.211 C 254.330 297.978,253.918 299.054,253.691 299.602 C 253.163 300.880,252.932 301.482,251.394 305.578 C 250.695 307.440,249.937 309.412,249.710 309.960 C 249.264 311.033,248.730 312.360,248.107 313.944 C 247.892 314.492,247.551 315.261,247.350 315.654 C 246.798 316.733,247.283 317.131,249.151 317.131 C 251.317 317.131,251.983 316.597,252.882 314.143 L 253.611 312.151 258.127 312.151 L 262.643 312.151 263.414 314.143 C 264.368 316.608,265.029 317.131,267.184 317.131 C 269.052 317.131,269.537 316.733,268.984 315.654 C 268.482 314.673,268.111 313.751,265.737 307.570 C 264.601 304.612,263.525 301.833,263.346 301.394 C 263.168 300.956,262.540 299.343,261.951 297.809 C 261.362 296.275,260.673 294.888,260.420 294.727 C 259.488 294.134,256.320 294.397,255.705 295.120 M271.913 295.298 C 271.789 295.803,271.739 300.876,271.800 306.574 L 271.912 316.932 278.586 317.042 L 285.259 317.151 285.259 315.348 L 285.259 313.546 281.550 313.546 C 276.173 313.546,276.521 314.218,276.398 303.586 L 276.295 294.622 274.216 294.502 C 272.330 294.393,272.116 294.466,271.913 295.298 M288.048 305.777 L 288.048 317.131 295.012 317.131 L 301.977 317.131 302.219 316.167 C 302.788 313.898,302.545 313.755,297.910 313.632 C 292.950 313.501,292.708 313.317,292.908 309.849 L 293.028 307.769 296.414 307.570 L 299.801 307.371 299.923 305.693 L 300.044 304.016 296.536 303.900 L 293.028 303.785 292.902 302.024 C 292.646 298.444,292.641 298.447,297.713 298.320 C 302.620 298.196,302.881 298.026,302.217 295.378 L 301.977 294.422 295.012 294.422 L 288.048 294.422 288.048 305.777 M309.619 295.002 C 306.042 296.297,304.237 299.486,305.221 302.772 C 305.980 305.306,307.780 306.592,312.218 307.771 C 315.000 308.511,315.918 310.870,314.085 312.569 C 312.780 313.778,310.914 313.844,308.964 312.749 C 307.325 311.828,306.137 311.735,305.403 312.469 C 301.684 316.187,312.889 319.034,317.008 315.418 C 321.905 311.118,319.647 305.011,312.550 303.361 C 309.578 302.669,308.649 300.159,310.857 298.783 C 312.271 297.903,313.493 297.966,315.749 299.036 C 317.302 299.773,317.694 299.616,318.581 297.901 C 319.861 295.427,313.831 293.476,309.619 295.002 M125.280 295.325 C 125.173 295.602,125.134 300.577,125.192 306.381 L 125.299 316.932 127.490 316.932 L 129.681 316.932 129.787 305.876 L 129.893 294.821 127.683 294.821 C 126.268 294.821,125.403 295.002,125.280 295.325 M90.557 299.605 C 93.024 302.365,91.054 305.688,87.066 305.495 L 84.661 305.378 84.545 302.026 C 84.408 298.118,84.572 297.898,87.427 298.138 C 89.036 298.274,89.607 298.541,90.557 299.605 M113.944 299.559 C 117.693 302.283,117.286 310.654,113.313 312.539 C 105.865 316.073,99.517 306.088,105.443 300.161 C 107.329 298.275,111.747 297.962,113.944 299.559 M197.427 299.450 C 201.961 302.421,200.846 311.223,195.697 313.101 C 190.088 315.146,185.308 309.057,187.491 302.649 C 188.770 298.896,194.007 297.209,197.427 299.450 M260.039 304.012 C 261.680 308.724,261.664 308.765,258.203 308.765 C 254.771 308.765,254.681 308.618,255.912 305.066 C 258.114 298.715,258.188 298.696,260.039 304.012 " stroke="none" fill="#0e1215" fill-rule="evenodd"></path><path id="path3" d="M194.913 88.533 L 195.020 97.809 199.681 97.921 L 204.342 98.033 204.578 96.726 C 204.708 96.007,204.762 91.833,204.698 87.450 L 204.582 79.482 199.694 79.370 L 194.806 79.258 194.913 88.533 M203.892 88.546 L 203.785 97.410 199.602 97.410 L 195.418 97.410 195.311 88.546 L 195.204 79.681 199.602 79.681 L 203.999 79.681 203.892 88.546 M159.064 89.467 C 157.475 91.090,156.175 92.521,156.175 92.646 C 156.175 93.002,169.862 106.773,170.216 106.773 C 170.801 106.773,176.494 100.815,176.494 100.203 C 176.494 99.328,163.497 86.448,162.652 86.485 C 162.267 86.502,160.652 87.844,159.064 89.467 M229.183 93.057 C 225.623 96.653,222.709 99.869,222.709 100.203 C 222.709 100.811,228.401 106.773,228.982 106.773 C 229.381 106.773,243.028 93.118,243.028 92.719 C 243.028 92.070,237.023 86.456,236.361 86.486 C 235.974 86.504,232.744 89.461,229.183 93.057 M169.617 93.322 C 173.180 96.880,176.096 99.969,176.096 100.185 C 176.096 100.402,174.799 101.884,173.214 103.480 L 170.333 106.380 163.477 99.533 L 156.621 92.685 159.459 89.769 C 163.023 86.106,162.050 85.766,169.617 93.322 M239.735 89.734 L 242.635 92.615 235.788 99.471 L 228.940 106.327 226.024 103.490 C 224.420 101.929,223.108 100.488,223.108 100.287 C 223.108 99.812,235.935 86.918,236.445 86.881 C 236.659 86.865,238.139 88.149,239.735 89.734 M191.434 109.350 C 188.342 109.888,183.400 111.110,182.472 111.565 C 182.142 111.727,181.335 112.100,180.677 112.394 C 175.133 114.875,164.940 124.774,164.940 127.678 C 164.940 127.799,164.594 128.657,164.171 129.586 C 162.705 132.803,161.761 135.981,160.888 140.637 C 160.256 144.008,160.019 157.274,160.557 159.163 C 162.051 164.413,161.879 163.948,163.794 167.928 C 164.532 169.462,165.271 170.777,165.437 170.850 C 165.602 170.923,165.737 171.203,165.737 171.472 C 165.737 171.741,166.071 172.320,166.480 172.759 C 166.889 173.197,167.440 173.962,167.706 174.459 C 167.972 174.956,168.433 175.661,168.730 176.028 C 175.836 184.776,178.471 190.236,178.480 196.235 C 178.488 201.263,176.210 200.797,200.797 200.797 C 225.519 200.797,223.108 201.337,223.108 195.797 C 223.108 192.133,223.338 190.651,224.283 188.247 C 224.919 186.629,228.686 179.282,229.084 178.884 C 229.334 178.634,230.176 177.160,231.245 175.100 C 231.700 174.223,232.161 173.416,232.271 173.307 C 233.000 172.578,235.828 166.885,235.844 166.116 C 235.851 165.776,236.005 165.328,236.186 165.120 C 236.487 164.773,237.042 163.079,237.878 159.960 C 239.033 155.648,239.002 145.088,237.822 141.207 C 237.618 140.534,237.450 139.424,237.450 138.740 C 237.450 138.057,237.271 137.386,237.052 137.251 C 236.833 137.116,236.653 136.635,236.653 136.184 C 236.653 134.955,235.030 130.374,233.713 127.888 C 233.075 126.683,232.355 125.295,232.113 124.804 C 231.871 124.313,231.539 123.909,231.375 123.907 C 231.210 123.906,231.076 123.724,231.076 123.503 C 231.076 121.825,223.021 114.821,219.024 113.023 C 213.705 110.630,212.559 110.286,206.208 109.177 C 203.131 108.639,194.972 108.735,191.434 109.350 M204.873 109.592 C 211.253 110.536,214.063 111.320,218.725 113.455 C 222.784 115.313,229.533 121.266,231.318 124.562 C 231.774 125.405,232.500 126.723,232.931 127.490 C 236.057 133.058,237.933 141.743,237.998 150.944 C 238.046 157.646,237.755 159.548,235.888 164.741 C 235.279 166.436,232.048 172.841,230.462 175.498 C 227.439 180.564,224.743 185.631,223.892 187.849 C 223.724 188.287,223.372 189.216,223.110 189.914 C 222.849 190.611,222.517 193.211,222.373 195.691 L 222.112 200.199 200.797 200.199 L 179.482 200.199 179.207 196.057 C 179.056 193.779,178.724 191.359,178.469 190.679 C 177.101 187.029,174.470 182.651,170.543 177.490 C 166.594 172.300,165.147 169.872,162.825 164.542 C 161.192 160.793,160.558 157.164,160.558 151.565 C 160.558 143.475,162.043 135.469,164.563 129.984 C 164.990 129.056,165.339 128.191,165.339 128.064 C 165.339 127.937,165.876 127.051,166.534 126.096 C 167.191 125.140,167.729 124.167,167.729 123.932 C 167.729 123.698,167.870 123.506,168.042 123.506 C 168.213 123.506,168.652 123.001,169.017 122.384 C 169.871 120.938,173.129 117.680,174.575 116.826 C 175.192 116.461,175.697 116.022,175.697 115.850 C 175.697 115.678,175.889 115.538,176.123 115.538 C 176.358 115.538,177.299 115.039,178.215 114.430 C 181.538 112.220,188.309 110.000,191.938 109.932 C 192.757 109.917,193.785 109.750,194.223 109.562 C 195.364 109.072,201.474 109.089,204.873 109.592 M192.629 118.526 C 181.680 120.311,174.936 126.006,171.401 136.454 C 168.162 146.031,168.460 157.510,172.116 163.937 C 173.422 166.233,174.683 168.329,174.996 168.725 C 180.978 176.295,185.399 183.817,187.238 189.554 C 188.241 192.683,188.435 190.706,188.541 176.280 L 188.645 161.952 192.829 161.952 L 197.012 161.952 197.211 176.693 L 197.410 191.434 199.602 191.434 L 201.793 191.434 201.992 176.693 L 202.191 161.952 206.375 161.952 L 210.558 161.952 210.662 176.350 C 210.775 191.929,210.788 192.012,212.903 191.481 C 213.673 191.288,213.961 190.825,214.357 189.146 C 215.372 184.840,217.331 180.630,221.915 172.908 C 228.352 162.063,229.482 158.839,229.482 151.315 C 229.482 148.802,229.295 145.686,229.066 144.389 C 228.261 139.833,227.802 137.642,227.489 136.853 C 227.314 136.414,226.946 135.428,226.669 134.661 C 222.273 122.476,208.489 115.942,192.629 118.526 M206.773 119.298 C 215.612 120.946,221.568 125.207,224.964 132.312 C 227.882 138.417,228.881 143.394,228.834 151.594 C 228.799 157.509,228.332 159.514,225.723 164.940 C 224.631 167.213,224.288 167.833,221.804 172.033 C 220.987 173.415,220.319 174.699,220.319 174.889 C 220.319 175.078,220.184 175.292,220.020 175.365 C 219.508 175.593,216.169 181.971,215.152 184.661 C 214.427 186.583,213.944 188.364,213.944 189.123 C 213.944 190.140,212.962 191.004,212.156 190.695 C 211.634 190.494,211.554 188.594,211.554 176.480 C 211.554 159.619,211.980 160.956,206.608 160.956 C 201.147 160.956,201.622 159.527,201.499 176.329 L 201.394 190.637 199.602 190.637 L 197.809 190.637 197.704 176.329 C 197.580 159.442,198.077 160.894,192.470 161.043 L 188.247 161.155 188.048 174.370 C 187.831 188.756,187.779 189.139,186.502 185.801 C 185.576 183.383,182.363 177.754,181.188 176.493 C 180.798 176.074,180.478 175.635,180.478 175.518 C 180.478 175.324,178.394 172.445,177.097 170.848 C 176.799 170.482,176.338 169.776,176.073 169.280 C 175.807 168.783,175.255 168.018,174.847 167.579 C 174.438 167.141,174.104 166.562,174.104 166.293 C 174.104 166.024,173.969 165.744,173.805 165.671 C 173.524 165.546,171.988 162.526,171.304 160.757 C 171.135 160.319,170.755 159.333,170.459 158.566 C 169.773 156.790,169.803 144.884,170.501 141.791 C 173.505 128.475,179.269 122.140,191.036 119.221 C 193.484 118.614,203.363 118.662,206.773 119.298 M181.066 207.669 C 180.943 208.162,180.895 210.359,180.959 212.550 L 181.076 216.534 200.797 216.534 L 220.518 216.534 220.634 212.550 C 220.698 210.359,220.650 208.162,220.527 207.669 L 220.304 206.773 200.797 206.773 L 181.290 206.773 181.066 207.669 M219.721 211.952 L 219.721 216.135 200.996 216.240 C 183.746 216.336,182.232 216.291,181.773 215.666 C 181.247 214.950,181.054 208.322,181.544 207.832 C 181.693 207.683,190.343 207.609,200.767 207.666 L 219.721 207.769 219.721 211.952 M181.310 220.874 C 181.006 221.240,180.887 222.907,180.962 225.755 L 181.076 230.080 200.797 230.080 L 220.518 230.080 220.631 225.755 C 220.790 219.711,223.006 220.319,200.797 220.319 C 185.011 220.319,181.692 220.413,181.310 220.874 M219.834 225.598 L 219.947 229.880 200.853 229.880 C 183.809 229.880,181.733 229.813,181.517 229.250 C 181.040 228.009,181.249 221.591,181.773 221.377 C 182.047 221.266,190.697 221.206,200.996 221.245 L 219.721 221.315 219.834 225.598 M188.319 234.523 C 188.170 234.672,188.048 236.826,188.048 239.309 L 188.048 243.825 200.809 243.825 L 213.571 243.825 213.459 239.143 L 213.347 234.462 200.968 234.357 C 194.160 234.299,188.468 234.374,188.319 234.523 M213.147 239.243 L 213.147 243.426 200.797 243.426 L 188.446 243.426 188.446 239.243 L 188.446 235.060 200.797 235.060 L 213.147 235.060 213.147 239.243 M154.757 305.777 C 154.757 311.912,154.812 314.367,154.880 311.231 C 154.947 308.095,154.947 303.075,154.879 300.075 C 154.812 297.076,154.757 299.641,154.757 305.777 M277.063 303.586 C 277.063 308.516,277.120 310.533,277.190 308.068 C 277.260 305.603,277.260 301.569,277.190 299.104 C 277.120 296.638,277.063 298.655,277.063 303.586 M134.039 305.777 C 134.039 311.693,134.094 314.169,134.162 311.279 C 134.230 308.389,134.230 303.548,134.163 300.522 C 134.095 297.496,134.039 299.861,134.039 305.777 M302.889 296.614 C 302.894 297.490,302.975 297.802,303.071 297.306 C 303.166 296.811,303.162 296.093,303.063 295.712 C 302.963 295.332,302.885 295.737,302.889 296.614 M215.438 303.877 C 216.370 303.961,217.893 303.961,218.825 303.877 C 219.756 303.793,218.994 303.725,217.131 303.725 C 215.269 303.725,214.507 303.793,215.438 303.877 M257.072 308.253 C 257.674 308.345,258.660 308.345,259.263 308.253 C 259.866 308.162,259.373 308.088,258.167 308.088 C 256.962 308.088,256.469 308.162,257.072 308.253 M302.881 315.139 C 302.881 315.906,302.963 316.220,303.063 315.837 C 303.164 315.453,303.164 314.826,303.063 314.442 C 302.963 314.059,302.881 314.373,302.881 315.139 " stroke="none" fill="#857ea8" fill-rule="evenodd"></path><path id="path4" d="M79.569 294.269 C 79.412 294.426,79.283 299.724,79.283 306.042 L 79.283 317.530 82.025 317.530 C 85.233 317.530,85.245 317.513,85.254 312.895 L 85.259 310.054 88.289 309.770 C 92.083 309.414,93.628 308.776,95.143 306.939 C 98.507 302.858,96.263 295.557,91.358 294.625 C 89.170 294.210,79.909 293.929,79.569 294.269 M105.976 294.503 C 105.428 294.738,104.440 295.162,103.779 295.447 C 100.138 297.016,97.189 303.258,98.051 307.570 C 100.998 322.297,121.912 320.553,121.912 305.580 C 121.912 297.635,113.055 291.479,105.976 294.503 M124.881 294.527 C 124.775 294.804,124.736 300.048,124.794 306.181 L 124.900 317.331 127.454 317.451 C 129.227 317.534,130.108 317.413,130.336 317.053 C 130.887 316.184,130.759 295.061,130.199 294.502 C 129.546 293.849,125.134 293.870,124.881 294.527 M134.443 294.527 C 134.337 294.804,134.298 300.048,134.356 306.181 L 134.462 317.331 136.853 317.331 L 139.243 317.331 139.352 310.857 C 139.413 307.296,139.592 304.391,139.751 304.400 C 139.910 304.410,141.743 306.584,143.825 309.230 C 150.339 317.513,150.357 317.530,152.630 317.530 L 154.594 317.530 154.488 305.876 L 154.382 294.223 151.992 294.223 L 149.602 294.223 149.492 300.697 C 149.390 306.733,149.138 308.013,148.327 306.628 C 148.151 306.329,147.470 305.405,146.813 304.576 C 146.155 303.747,144.470 301.616,143.067 299.841 C 138.768 294.400,138.334 294.024,136.364 294.024 C 135.339 294.024,134.558 294.229,134.443 294.527 M156.448 294.282 C 156.298 294.432,156.175 295.415,156.175 296.467 C 156.175 298.815,156.736 299.203,160.126 299.203 L 162.535 299.203 162.642 308.267 L 162.749 317.331 165.637 317.448 L 168.526 317.565 168.526 308.401 L 168.526 299.237 171.614 299.120 L 174.701 299.004 174.701 296.614 L 174.701 294.223 165.711 294.116 C 160.767 294.057,156.598 294.132,156.448 294.282 M189.641 294.503 C 189.094 294.738,188.074 295.177,187.376 295.479 C 182.626 297.537,180.128 305.663,182.618 310.956 C 186.913 320.088,201.296 319.781,204.774 310.484 C 206.913 304.768,204.436 297.456,199.659 295.383 C 198.860 295.037,197.896 294.590,197.515 294.389 C 196.575 293.893,190.876 293.976,189.641 294.503 M208.061 294.351 C 207.670 294.604,207.581 297.209,207.663 306.004 L 207.769 317.331 210.558 317.331 L 213.347 317.331 213.460 313.062 L 213.572 308.793 217.444 308.680 L 221.315 308.566 221.315 306.375 L 221.315 304.183 217.530 303.984 L 213.745 303.785 213.626 301.494 L 213.506 299.203 217.633 299.203 C 222.745 299.203,223.207 298.947,223.033 296.202 L 222.908 294.223 215.737 294.125 C 211.793 294.070,208.339 294.172,208.061 294.351 M234.520 294.822 C 231.537 296.311,230.677 297.764,230.677 301.318 C 230.677 304.815,233.716 307.968,237.086 307.968 C 238.656 307.968,240.239 309.474,240.239 310.968 C 240.239 313.042,237.999 313.552,235.006 312.158 C 232.267 310.883,232.111 310.896,230.897 312.488 C 229.291 314.593,229.599 315.217,233.001 316.751 C 240.267 320.029,248.383 314.051,245.626 307.452 C 244.810 305.498,240.543 302.789,238.283 302.789 C 237.311 302.789,235.702 300.978,235.995 300.213 C 236.488 298.930,241.833 298.411,241.833 299.647 C 241.833 299.841,242.269 300.000,242.802 300.000 C 243.899 300.000,245.418 298.180,245.418 296.865 C 245.418 294.520,237.936 293.117,234.520 294.822 M255.498 294.331 C 255.235 294.503,253.859 297.687,252.441 301.406 C 251.023 305.125,249.556 308.884,249.182 309.761 C 248.064 312.378,246.614 316.494,246.614 317.048 C 246.614 317.434,247.301 317.536,249.303 317.448 C 252.228 317.320,252.262 317.289,253.744 313.446 C 254.166 312.352,254.170 312.351,258.167 312.351 C 262.164 312.351,262.169 312.352,262.591 313.446 C 264.072 317.289,264.107 317.320,267.032 317.448 C 270.271 317.590,270.222 317.825,268.102 312.350 C 267.211 310.049,265.694 306.106,264.731 303.586 C 263.768 301.066,262.542 297.928,262.006 296.614 L 261.032 294.223 258.504 294.120 C 257.114 294.064,255.761 294.159,255.498 294.331 M271.502 294.508 C 271.392 294.796,271.350 300.048,271.408 306.181 L 271.514 317.331 278.486 317.331 L 285.458 317.331 285.458 315.139 L 285.458 312.948 282.072 312.848 C 276.324 312.679,276.924 313.769,276.800 303.281 L 276.693 294.223 274.198 294.104 C 272.418 294.020,271.645 294.135,271.502 294.508 M287.924 294.281 C 287.773 294.432,287.649 299.728,287.649 306.051 L 287.649 317.547 295.120 317.439 L 302.590 317.331 302.590 315.139 L 302.590 312.948 298.108 312.836 L 293.625 312.723 293.625 310.361 L 293.625 307.999 297.112 307.884 L 300.598 307.769 300.598 305.777 L 300.598 303.785 297.112 303.670 L 293.625 303.555 293.625 301.379 L 293.625 299.203 297.760 299.203 C 302.579 299.203,302.895 299.008,302.712 296.146 L 302.590 294.223 295.394 294.115 C 291.436 294.055,288.075 294.130,287.924 294.281 M308.414 294.909 C 304.274 296.915,303.077 302.833,306.242 305.645 C 307.420 306.691,309.919 307.968,310.789 307.968 C 313.079 307.968,315.004 309.980,314.217 311.551 C 313.361 313.262,311.092 313.311,307.978 311.685 C 306.344 310.833,305.680 311.060,304.624 312.831 C 303.436 314.822,303.611 315.164,306.529 316.572 C 314.095 320.221,322.974 313.680,319.459 307.046 C 318.566 305.359,314.312 302.789,312.414 302.789 C 310.148 302.789,309.403 299.476,311.563 299.002 C 312.841 298.721,315.439 299.120,315.765 299.647 C 316.616 301.024,319.516 298.769,319.520 296.727 C 319.525 294.436,311.949 293.196,308.414 294.909 M89.210 294.871 C 94.376 295.756,96.137 297.586,96.109 302.042 C 96.080 306.746,94.129 308.516,88.096 309.309 L 84.661 309.761 84.462 313.347 L 84.263 316.932 81.972 317.052 L 79.681 317.171 79.681 305.797 L 79.681 294.422 83.135 294.422 C 85.034 294.422,87.768 294.624,89.210 294.871 M114.280 295.196 C 124.351 298.877,123.735 314.159,113.410 316.759 C 103.946 319.142,95.582 310.222,99.188 301.594 C 99.834 300.049,99.851 300.023,101.622 297.907 C 104.289 294.721,109.769 293.547,114.280 295.196 M139.198 296.116 C 140.116 297.047,141.350 298.466,141.941 299.268 C 142.532 300.071,143.243 300.967,143.520 301.260 C 143.797 301.553,144.514 302.450,145.113 303.252 C 145.713 304.055,146.430 304.952,146.707 305.244 C 146.984 305.537,147.727 306.467,148.358 307.311 C 149.993 309.500,150.186 308.846,150.193 301.096 L 150.199 294.422 151.949 294.422 C 154.264 294.422,154.183 294.013,154.183 305.777 C 154.183 317.185,154.192 317.131,152.409 317.131 C 150.757 317.131,150.517 316.898,144.823 309.761 C 140.115 303.858,139.530 303.205,138.944 303.193 C 138.780 303.190,138.645 306.335,138.645 310.181 L 138.645 317.175 136.753 317.054 L 134.861 316.932 134.749 306.574 C 134.687 300.876,134.735 295.812,134.856 295.319 C 135.239 293.751,137.228 294.116,139.198 296.116 M174.303 296.414 L 174.303 298.207 171.315 298.406 L 168.327 298.606 168.220 307.888 L 168.113 317.171 165.829 317.052 L 163.546 316.932 163.320 307.769 C 163.055 296.998,163.496 298.406,160.391 298.406 C 157.023 298.406,156.574 298.200,156.574 296.651 C 156.574 294.440,156.763 294.397,165.924 294.514 L 174.303 294.622 174.303 296.414 M197.093 294.877 C 200.129 296.115,200.731 296.484,202.008 297.888 C 204.151 300.243,205.179 302.803,205.179 305.781 C 205.179 316.365,191.951 321.201,184.816 313.225 C 177.337 304.865,186.822 290.689,197.093 294.877 M222.231 294.900 C 222.494 295.163,222.709 295.967,222.709 296.686 C 222.709 298.271,222.411 298.368,217.131 298.506 L 213.347 298.606 213.230 301.494 L 213.113 304.382 216.484 304.382 C 220.621 304.382,221.116 304.554,221.116 305.986 C 221.116 308.272,220.948 308.367,216.890 308.367 L 213.147 308.367 213.147 312.769 L 213.147 317.171 210.857 317.052 L 208.566 316.932 208.459 306.181 C 208.401 300.268,208.440 295.203,208.547 294.926 C 208.815 294.227,221.534 294.203,222.231 294.900 M241.833 295.030 C 242.819 295.358,243.939 295.735,244.323 295.868 C 245.422 296.248,244.406 299.592,243.189 299.599 C 242.948 299.600,242.215 299.334,241.560 299.007 C 239.483 297.971,238.157 297.909,236.753 298.783 C 234.282 300.322,235.377 302.318,239.390 303.591 C 245.065 305.391,247.108 309.585,244.368 313.810 C 242.139 317.248,236.251 318.218,232.171 315.820 C 230.022 314.556,229.943 314.336,231.148 312.951 C 232.196 311.746,233.233 311.691,234.970 312.750 C 237.348 314.201,240.400 313.543,240.852 311.483 C 241.321 309.348,240.310 308.465,235.861 307.122 C 231.749 305.881,229.862 301.759,231.710 298.054 C 233.208 295.052,237.785 293.685,241.833 295.030 M260.420 294.727 C 260.673 294.888,261.362 296.275,261.951 297.809 C 262.540 299.343,263.168 300.956,263.346 301.394 C 263.525 301.833,264.601 304.612,265.737 307.570 C 268.111 313.751,268.482 314.673,268.984 315.654 C 269.537 316.733,269.052 317.131,267.184 317.131 C 265.029 317.131,264.368 316.608,263.414 314.143 L 262.643 312.151 258.127 312.151 L 253.611 312.151 252.882 314.143 C 251.983 316.597,251.317 317.131,249.151 317.131 C 247.283 317.131,246.798 316.733,247.350 315.654 C 247.551 315.261,247.892 314.492,248.107 313.944 C 248.730 312.360,249.264 311.033,249.710 309.960 C 249.937 309.412,250.695 307.440,251.394 305.578 C 252.932 301.482,253.163 300.880,253.691 299.602 C 253.918 299.054,254.330 297.978,254.607 297.211 C 255.534 294.649,258.383 293.431,260.420 294.727 M276.398 303.586 C 276.521 314.218,276.173 313.546,281.550 313.546 L 285.259 313.546 285.259 315.348 L 285.259 317.151 278.586 317.042 L 271.912 316.932 271.800 306.574 C 271.662 293.758,271.544 294.347,274.216 294.502 L 276.295 294.622 276.398 303.586 M302.217 295.378 C 302.881 298.026,302.620 298.196,297.713 298.320 C 292.641 298.447,292.646 298.444,292.902 302.024 L 293.028 303.785 296.536 303.900 L 300.044 304.016 299.923 305.693 L 299.801 307.371 296.414 307.570 L 293.028 307.769 292.908 309.849 C 292.708 313.317,292.950 313.501,297.910 313.632 C 302.545 313.755,302.788 313.898,302.219 316.167 L 301.977 317.131 295.012 317.131 L 288.048 317.131 288.048 305.777 L 288.048 294.422 295.012 294.422 L 301.977 294.422 302.217 295.378 M315.766 294.926 C 318.771 295.838,319.338 296.437,318.581 297.901 C 317.694 299.616,317.302 299.773,315.749 299.036 C 313.493 297.966,312.271 297.903,310.857 298.783 C 308.649 300.159,309.578 302.669,312.550 303.361 C 319.647 305.011,321.905 311.118,317.008 315.418 C 312.889 319.034,301.684 316.187,305.403 312.469 C 306.137 311.735,307.325 311.828,308.964 312.749 C 310.914 313.844,312.780 313.778,314.085 312.569 C 315.918 310.870,315.000 308.511,312.218 307.771 C 307.780 306.592,305.980 305.306,305.221 302.772 C 303.612 297.399,309.492 293.024,315.766 294.926 M129.787 305.876 L 129.681 316.932 127.490 316.932 L 125.299 316.932 125.192 306.381 C 125.067 293.947,124.879 294.821,127.683 294.821 L 129.893 294.821 129.787 305.876 M84.943 298.323 C 84.574 298.575,84.461 299.622,84.545 302.026 L 84.661 305.378 87.066 305.495 C 92.898 305.777,93.249 298.628,87.427 298.138 C 86.344 298.047,85.226 298.130,84.943 298.323 M89.308 299.254 C 92.591 300.541,91.278 304.905,87.550 305.100 L 85.259 305.219 85.259 301.768 L 85.259 298.318 86.753 298.577 C 87.575 298.720,88.725 299.025,89.308 299.254 M107.854 298.675 C 104.837 299.180,102.529 304.111,103.533 307.906 C 105.821 316.557,116.503 314.751,116.445 305.723 C 116.410 300.280,113.335 297.757,107.854 298.675 M191.633 298.677 C 186.871 299.632,185.242 307.410,188.973 311.383 C 194.970 317.769,203.822 308.458,198.917 300.924 C 197.737 299.112,194.480 298.107,191.633 298.677 M113.278 299.643 C 115.860 300.819,116.891 306.759,115.074 309.991 C 112.477 314.612,105.065 313.190,104.172 307.899 C 103.072 301.391,107.769 297.133,113.278 299.643 M197.258 300.033 C 200.696 302.482,200.289 310.380,196.635 312.114 C 190.762 314.901,185.098 308.082,188.239 302.007 C 189.719 299.145,194.531 298.092,197.258 300.033 M257.341 301.063 C 254.445 308.613,254.462 308.765,258.203 308.765 C 261.664 308.765,261.680 308.724,260.039 304.012 C 258.629 299.962,258.019 299.295,257.341 301.063 M259.628 304.343 C 260.861 308.019,260.735 308.367,258.167 308.367 C 255.632 308.367,255.454 307.961,256.569 304.704 C 257.041 303.322,257.505 301.952,257.599 301.660 C 257.953 300.557,258.681 301.519,259.628 304.343 " stroke="none" fill="#255a83" fill-rule="evenodd"></path></g></svg>